<?xml version="1.0" standalone="no"?>
<!DOCTYPE svg PUBLIC "-//W3C//DTD SVG 20010904//EN"
 "http://www.w3.org/TR/2001/REC-SVG-20010904/DTD/svg10.dtd">
<svg version="1.0" xmlns="http://www.w3.org/2000/svg"
 width="206.000000pt" height="244.000000pt" viewBox="0 0 206.000000 244.000000"
 preserveAspectRatio="xMidYMid meet">
<metadata>
Created by potrace 1.11, written by Peter Selinger 2001-2013
</metadata>
<g transform="translate(0.000000,244.000000) scale(0.100000,-0.100000)"
fill="#000000" stroke="none">
<path d="M820 2430 c-337 -43 -560 -240 -624 -552 -48 -235 14 -463 187 -687
35 -46 46 -66 38 -74 -6 -6 -11 -21 -11 -34 0 -13 -4 -23 -9 -23 -4 0 -47 -36
-94 -81 -80 -75 -88 -80 -120 -74 -104 20 -209 -101 -178 -205 37 -125 178
-168 272 -83 21 19 43 49 49 67 9 29 55 65 66 53 3 -2 9 -79 15 -171 8 -121 8
-180 0 -211 -6 -24 -11 -57 -11 -74 0 -25 -7 -32 -43 -50 -62 -30 -83 -85 -55
-146 32 -70 166 -96 374 -72 130 15 194 35 223 71 23 27 19 92 -7 119 -28 29
-28 42 0 61 35 25 102 20 135 -8 l28 -24 -27 -21 c-60 -48 -41 -138 38 -172
66 -30 233 -44 342 -29 139 18 202 64 202 145 0 52 -21 80 -75 98 -36 13 -39
17 -44 58 -6 53 -7 191 -1 397 4 136 6 157 25 182 39 53 328 369 342 374 8 3
27 6 42 6 15 0 47 13 72 29 35 21 51 41 68 81 27 63 23 112 -14 177 -56 95
-203 112 -290 32 -20 -18 -20 -17 -17 105 3 101 0 139 -17 207 -66 263 -252
444 -523 509 -96 23 -264 32 -358 20z m59 -59 c39 -27 61 -79 61 -143 0 -86
-24 -133 -87 -167 -32 -17 -101 -13 -135 7 -82 47 -93 219 -18 287 49 44 130
51 179 16z m293 3 c111 -56 113 -264 3 -310 -63 -26 -104 -18 -158 29 -44 39
-48 47 -54 97 -16 158 84 246 209 184z m-506 -25 c-14 -17 -26 -35 -26 -40 0
-5 -7 -9 -16 -9 -14 0 -14 -3 -3 -16 7 -9 9 -18 3 -22 -5 -4 -15 -19 -23 -34
-8 -16 -23 -28 -33 -28 -10 0 -18 -4 -18 -10 0 -12 52 7 62 23 5 8 8 7 8 -5 0
-9 2 -23 6 -31 4 -10 -9 -17 -51 -25 -30 -6 -63 -9 -73 -6 -13 5 -14 4 -3 -4
11 -8 10 -12 -8 -21 -12 -7 -26 -9 -31 -6 -6 4 -9 1 -8 -6 2 -6 -3 -14 -11
-17 -8 -2 -11 0 -8 5 3 5 -2 9 -12 9 -10 0 -18 -6 -18 -13 0 -7 4 -10 9 -7 4
3 5 -2 2 -11 -4 -9 -9 -13 -12 -11 -7 8 -33 -15 -27 -24 2 -4 -5 -16 -18 -26
-18 -16 -19 -16 -8 -1 13 17 12 19 -19 21 -8 1 -14 7 -13 12 1 6 -5 11 -13 11
-11 0 -10 -5 6 -22 11 -12 20 -28 20 -36 0 -12 -2 -12 -11 1 -9 13 -10 13 -6
0 2 -8 10 -14 16 -12 15 3 14 -5 -5 -37 -16 -26 -71 -66 -87 -63 -5 2 -6 -2
-3 -7 4 -5 2 -12 -4 -16 -16 -10 -12 18 15 102 26 85 79 178 95 168 14 -9 61
47 56 66 -2 12 9 22 37 33 22 9 38 19 34 22 -4 4 -15 1 -24 -7 -16 -12 -15
-11 1 8 10 13 22 20 26 18 4 -3 13 2 20 10 15 18 34 20 23 3 -4 -7 5 -5 20 5
17 11 37 16 50 12 21 -6 21 -5 3 6 -15 9 -24 9 -37 0 -22 -13 -29 -14 -29 -3
0 12 49 31 56 21 9 -15 27 -10 21 5 -4 10 4 18 24 25 21 7 29 7 29 -2 0 -6 7
-4 17 6 28 27 27 20 -1 -14z m599 5 c6 -6 26 -14 45 -18 62 -11 144 -79 142
-116 0 -3 9 -6 20 -6 20 0 20 0 -1 17 -12 10 -21 21 -21 25 0 4 16 -7 35 -26
19 -19 35 -43 35 -54 0 -15 3 -17 9 -8 6 10 10 10 21 -3 7 -8 10 -16 6 -16 -3
-1 -10 -3 -16 -4 -5 -1 -13 -3 -16 -4 -3 0 -2 -6 1 -11 5 -8 11 -7 20 0 18 15
38 3 32 -20 -3 -12 0 -17 8 -14 22 9 98 -165 90 -206 -2 -11 0 -20 6 -20 5 0
9 -5 9 -11 0 -8 -5 -7 -15 1 -9 7 -13 15 -11 18 3 2 -9 14 -27 27 -23 15 -31
28 -29 45 1 13 -1 21 -4 17 -14 -14 -32 27 -23 52 5 13 7 26 4 29 -2 3 -9 -6
-14 -19 -7 -17 -10 -19 -10 -6 -1 9 -4 16 -8 15 -12 -4 -53 35 -53 50 0 7 5
10 12 6 7 -4 8 -3 4 5 -6 9 -11 9 -23 -1 -12 -10 -17 -9 -28 5 -6 9 -14 14
-18 11 -3 -3 -23 4 -46 15 -22 12 -47 21 -56 21 -8 0 -15 4 -15 10 0 5 -10 9
-22 7 -21 -2 -23 3 -28 58 -3 41 -14 75 -33 107 -23 39 -24 46 -10 41 10 -4
23 -12 28 -19z m-607 -248 c31 -52 66 -70 134 -71 l58 0 0 -37 c0 -43 36 -92
75 -102 25 -6 25 -7 25 -121 l0 -115 -76 0 c-82 0 -188 -14 -274 -36 -30 -8
-95 -14 -145 -14 -141 1 -206 41 -221 136 -16 109 56 177 161 150 28 -7 29 -7
11 8 -11 9 -30 16 -43 16 -27 0 -28 2 -7 41 39 76 114 135 209 165 61 19 71
17 93 -20z m738 0 c78 -36 115 -66 153 -122 38 -57 38 -64 5 -64 -29 0 -64
-16 -64 -30 0 -5 15 -3 34 5 19 8 43 12 53 9 69 -22 95 -60 95 -134 0 -80 -39
-132 -116 -155 -69 -21 -125 -19 -268 9 -68 14 -169 28 -225 32 l-103 7 0 111
0 112 36 13 c40 14 74 62 74 102 0 24 4 27 51 32 57 7 113 43 132 84 10 22 16
24 48 20 21 -3 64 -17 95 -31z m-1173 -428 c1 -9 4 -15 8 -13 13 9 41 -35 36
-56 -3 -12 -2 -31 3 -43 4 -12 9 -38 11 -57 2 -19 9 -43 16 -53 7 -11 10 -31
7 -45 -4 -20 -3 -23 5 -11 9 13 11 13 11 0 0 -20 59 -136 99 -195 17 -25 27
-45 23 -45 -29 0 -203 285 -188 309 4 5 1 11 -5 13 -6 2 -13 15 -15 28 -2 14
-9 48 -17 75 -8 28 -14 86 -15 130 0 79 0 80 10 30 5 -27 10 -58 11 -67z
m1712 -67 c117 -54 142 -197 49 -282 -55 -50 -122 -61 -191 -30 -139 64 -122
277 25 321 43 13 74 11 117 -9z m-1595 -5 c42 -12 49 -20 98 -102 118 -198
224 -306 349 -355 48 -19 77 -23 168 -23 107 -1 112 0 188 37 121 59 274 218
363 375 21 38 37 53 63 62 20 6 41 13 47 16 20 8 -7 -120 -43 -209 -45 -111
-158 -259 -223 -292 -87 -44 -474 -61 -692 -30 -58 8 -112 17 -120 20 -8 3
-31 26 -52 51 -80 96 -155 245 -175 350 -14 74 -21 114 -18 114 1 0 22 -6 47
-14z m1348 -232 c-4 -3 1 -14 10 -24 10 -10 28 -30 41 -44 13 -14 29 -26 36
-26 7 0 15 -8 17 -18 6 -22 -35 -77 -51 -68 -6 4 -9 2 -6 -7 3 -7 -4 -22 -16
-33 -13 -10 -19 -13 -14 -5 5 10 4 12 -3 7 -7 -4 -12 -12 -12 -17 0 -19 -72
-99 -83 -92 -6 3 -7 1 -3 -6 4 -6 0 -14 -8 -17 -9 -3 -16 -12 -16 -18 0 -7
-15 -27 -34 -45 l-33 -32 -6 23 c-4 15 -14 24 -26 24 -16 0 -20 -8 -23 -43 -2
-24 0 -43 5 -43 4 0 1 -10 -6 -22 -10 -16 -11 -31 -6 -48 l9 -25 -4 27 c-1 15
1 32 5 39 4 7 7 -50 7 -126 -1 -88 -4 -123 -8 -95 -4 25 -5 -12 -4 -82 2 -79
0 -128 -6 -128 -6 0 -10 -7 -10 -15 0 -8 5 -15 10 -15 6 0 10 -9 10 -21 0 -11
-4 -18 -8 -15 -4 2 -8 -4 -8 -14 0 -10 5 -18 11 -17 5 1 11 -13 13 -32 2 -21
0 -31 -7 -26 -6 3 -19 1 -28 -5 -14 -9 -14 -10 -2 -7 9 3 21 2 28 -2 22 -14
-76 -34 -132 -28 -36 5 -47 3 -37 -3 10 -7 -15 -9 -80 -8 -88 3 -95 4 -93 23
2 24 -12 34 -43 30 -13 -1 -24 2 -24 6 0 5 -3 8 -7 8 -21 -3 -26 2 -13 12 12
8 10 9 -7 4 -12 -3 -31 -1 -42 4 -14 8 -29 7 -54 -4 -27 -11 -37 -12 -40 -2
-3 7 -6 5 -6 -5 -1 -15 -36 -35 -54 -30 -4 1 -3 -7 3 -18 9 -16 8 -20 -5 -20
-10 0 -13 5 -9 13 6 9 4 9 -8 -1 -10 -8 -31 -11 -55 -8 -30 4 -33 4 -13 -3 17
-6 -13 -9 -95 -9 -81 -1 -113 2 -97 8 30 12 28 15 -13 17 -19 1 -35 -3 -35 -8
0 -5 -12 -1 -27 8 -15 10 -24 12 -20 6 11 -18 -8 -16 -23 2 -12 15 -5 119 8
111 4 -2 4 42 0 97 -4 56 -7 161 -7 232 0 72 0 146 0 165 -1 19 2 30 6 23 5
-6 8 11 9 38 0 32 -4 49 -12 49 -18 0 -25 -26 -31 -123 -6 -84 -7 -88 -32 -94
-14 -4 -34 -6 -44 -5 -9 0 -15 -3 -13 -7 3 -4 -4 -7 -15 -6 -17 1 -65 48 -67
65 0 3 -4 13 -7 22 -4 10 -4 25 -1 33 5 13 10 14 28 4 22 -11 22 -10 6 6 -16
17 -14 21 44 77 33 32 65 55 71 51 5 -3 7 -1 4 4 -9 15 29 47 48 40 8 -4 15
-14 15 -24 0 -15 2 -16 10 -3 5 8 12 11 16 7 4 -3 1 -15 -7 -24 -13 -17 -13
-17 7 -1 20 17 24 17 97 0 42 -9 77 -21 77 -26 0 -4 -8 -5 -17 -2 -10 4 -14 4
-10 0 4 -4 2 -13 -4 -21 -13 -15 -33 -18 -24 -3 3 6 -1 10 -11 10 -13 0 -14
-3 -4 -15 9 -11 7 -21 -14 -48 -14 -19 -26 -39 -26 -46 0 -7 -3 -10 -7 -8 -15
9 -14 -167 1 -223 14 -53 10 -93 -5 -54 -7 18 -8 17 -8 -3 -1 -27 15 -39 23
-17 6 16 16 15 19 -2 1 -4 18 -24 38 -43 19 -20 24 -27 10 -16 -14 11 -29 25
-33 30 -5 6 -8 5 -8 -3 0 -7 7 -15 16 -19 8 -3 13 -12 10 -20 -3 -8 -1 -11 5
-8 5 4 16 1 24 -5 8 -7 15 -9 15 -5 0 4 6 2 14 -4 15 -12 15 -29 0 -66 -7 -17
-6 -18 8 -5 9 8 14 18 11 22 -2 5 2 8 9 8 9 0 9 3 -2 10 -29 19 5 10 38 -10
33 -20 166 -59 212 -61 46 -3 172 12 192 22 10 6 34 8 51 4 24 -5 28 -4 17 4
-13 9 -13 11 2 11 9 0 19 -6 22 -12 3 -7 4 -4 1 8 -4 15 1 24 21 32 14 7 29
10 34 7 4 -3 10 5 13 16 3 12 10 18 17 14 6 -3 9 -3 8 2 -4 11 52 79 61 76 3
-2 6 0 6 5 2 20 17 52 24 47 5 -2 6 7 3 20 -3 17 1 27 12 31 9 3 16 10 16 16
0 5 -4 6 -10 3 -5 -3 -10 1 -10 9 0 9 3 16 8 16 4 0 7 14 7 30 0 17 -4 30 -9
30 -4 0 -6 16 -4 35 2 19 0 35 -4 35 -5 0 -7 17 -4 38 4 29 4 32 -3 12 -5 -14
-9 -19 -10 -12 -1 7 -12 30 -26 50 -16 24 -21 40 -15 46 6 6 10 14 10 20 0 5
-6 1 -14 -9 -13 -18 -14 -18 -45 4 -17 12 -29 26 -26 31 7 12 45 20 45 9 0 -5
5 -9 10 -9 6 0 9 5 8 11 -4 14 70 41 85 32 6 -3 7 -1 3 5 -4 7 -3 12 3 12 6 0
19 10 31 22 19 21 20 21 21 2 0 -11 3 -14 6 -6 3 7 0 18 -5 25 -25 31 -10 69
48 128 32 32 60 56 63 53 3 -3 8 -1 12 5 3 6 1 11 -5 11 -6 0 1 16 16 35 17
22 33 34 41 30 9 -3 17 3 20 15 3 11 10 20 16 20 6 0 8 -3 5 -6z m-515 -59 c4
-8 15 -15 23 -15 16 0 41 -46 30 -57 -4 -4 -12 -1 -17 7 -8 12 -9 11 -7 -5 4
-23 -46 -60 -65 -48 -7 4 -20 6 -31 4 -21 -3 -66 -41 -49 -41 6 0 16 7 23 15
14 17 40 20 40 6 0 -13 -53 -28 -120 -36 -102 -12 -237 23 -305 80 -20 16 -20
16 1 12 12 -2 21 1 21 8 0 7 -8 10 -19 7 -27 -7 -23 20 7 48 21 20 39 25 96
28 62 4 74 2 110 -23 38 -25 42 -25 59 -10 46 42 183 55 203 20z m-359 -354
c14 -5 16 -10 8 -15 -15 -9 -6 -81 14 -113 41 -65 113 -89 179 -57 42 20 61
45 80 107 11 39 11 48 -1 66 -15 21 -14 21 51 21 143 0 235 -103 235 -265 0
-131 -70 -234 -202 -296 -73 -34 -74 -34 -218 -34 -142 0 -146 1 -212 32 -84
40 -150 100 -184 169 -65 133 -27 306 80 361 60 31 128 41 170 24z m261 -83
c-8 -40 -50 -84 -87 -93 -24 -6 -28 -4 -28 16 0 12 8 31 17 41 22 24 6 53 -28
53 -18 0 -25 -6 -27 -24 -2 -14 2 -28 11 -32 9 -5 13 -18 9 -34 -5 -29 -5 -29
-42 -10 -37 19 -60 52 -60 87 l0 28 121 0 121 0 -7 -32z m-872 -27 c-7 -55 35
-129 78 -138 39 -8 41 -14 19 -51 -82 -135 -291 -68 -277 89 7 83 66 138 149
139 l36 0 -5 -39z m1336 -617 c101 -40 66 -159 -56 -195 -73 -21 -327 -18
-387 5 -75 29 -108 93 -72 142 13 18 25 19 163 16 153 -4 257 8 290 34 22 17
16 17 62 -2z m-1049 -25 c33 -7 119 -9 218 -7 156 4 164 4 178 -16 30 -43 13
-96 -39 -122 -72 -38 -353 -56 -443 -29 -70 20 -96 51 -92 106 3 37 8 47 38
67 24 16 43 22 60 18 14 -3 50 -11 80 -17z"/>
<path d="M610 692 c0 -100 78 -200 189 -244 81 -31 223 -30 305 2 112 43 186
138 186 238 l0 52 -47 -8 c-62 -9 -558 -9 -600 0 l-33 8 0 -48z m233 12 c89
-3 223 -1 297 4 74 6 136 9 138 7 12 -12 -13 -101 -41 -142 -62 -93 -175 -139
-319 -131 -141 8 -251 84 -284 195 -22 74 -20 87 16 79 17 -3 103 -8 193 -12z"/>
</g>
</svg>
